<svg xmlns="http://www.w3.org/2000/svg" width="172" height="52" viewBox="0 0 172 52"><g><g><g><path fill="#a6a6a6" d="M165.807 51.25H6.022C2.702 51.25 0 48.54 0 45.223V6.329A6.028 6.028 0 0 1 6.022.31h159.785c3.318 0 6.116 2.7 6.116 6.019v38.894c0 3.317-2.798 6.027-6.116 6.027z"/></g><g><path d="M170.69 45.224a4.877 4.877 0 0 1-4.882 4.878H6.022a4.884 4.884 0 0 1-4.889-4.878V6.327a4.89 4.89 0 0 1 4.89-4.883h159.784a4.883 4.883 0 0 1 4.882 4.883z"/></g><g><g><g><path fill="#fff" d="M38.368 25.505c-.037-4.104 3.361-6.101 3.516-6.194-1.924-2.806-4.906-3.189-5.955-3.22-2.505-.263-4.934 1.5-6.21 1.5-1.302 0-3.267-1.474-5.385-1.43-2.725.041-5.275 1.62-6.673 4.07-2.886 4.995-.734 12.337 2.031 16.375 1.383 1.978 3 4.186 5.115 4.109 2.07-.086 2.842-1.32 5.34-1.32 2.474 0 3.2 1.32 5.357 1.27 2.221-.036 3.62-1.987 4.954-3.982 1.598-2.267 2.24-4.5 2.266-4.614-.053-.018-4.314-1.644-4.356-6.564z"/></g><g><path fill="#fff" d="M34.293 13.435c1.113-1.392 1.875-3.286 1.663-5.207-1.61.07-3.625 1.114-4.786 2.475-1.026 1.2-1.943 3.166-1.706 5.015 1.81.135 3.668-.913 4.829-2.283z"/></g></g></g><g><g><path fill="#fff" d="M58.813 33.364l1.407-4.425c.37-1.408.638-2.472.805-3.193h.051c.42 1.676.703 2.74.855 3.193l1.432 4.425zm4.022-9.881h-3.37L54.01 40.43h2.816l1.51-4.978h5.506l1.584 4.978h2.892z"/></g><g><path fill="#fff" d="M79.581 34.27c0 1.29-.285 2.33-.855 3.118-.57.787-1.366 1.182-2.388 1.182-.871 0-1.58-.306-2.124-.918-.545-.613-.818-1.363-.818-2.252v-2.037c0-.217.042-.492.126-.828.167-.72.524-1.303 1.069-1.749.543-.441 1.152-.666 1.822-.666.988 0 1.776.403 2.364 1.208.537.771.804 1.752.804 2.941zm2.767-.1c0-1.86-.482-3.36-1.447-4.502-.963-1.14-2.166-1.709-3.608-1.709-1.844 0-3.218.729-4.124 2.188h-.05l-.152-1.937h-2.388c.066 1.376.1 2.717.1 4.023V45.41h2.716v-6.437h.05c.705 1.156 1.861 1.734 3.471 1.734 1.491 0 2.74-.536 3.747-1.61 1.123-1.206 1.684-2.849 1.684-4.927z"/></g><g><path fill="#fff" d="M93.637 34.27c0 1.29-.285 2.33-.856 3.118-.569.787-1.365 1.182-2.388 1.182-.873 0-1.581-.307-2.126-.918-.543-.613-.815-1.363-.815-2.252v-2.037c0-.217.043-.492.126-.828.167-.72.522-1.303 1.067-1.749.545-.441 1.153-.666 1.824-.666.99 0 1.775.403 2.362 1.208.537.771.806 1.752.806 2.941zm2.766-.1c0-1.86-.482-3.36-1.444-4.502-.965-1.14-2.169-1.709-3.61-1.709-1.844 0-3.219.729-4.123 2.188h-.05l-.152-1.937h-2.388c.066 1.376.1 2.717.1 4.023V45.41h2.716v-6.437h.05c.704 1.156 1.86 1.734 3.47 1.734 1.491 0 2.74-.536 3.745-1.61 1.125-1.206 1.686-2.849 1.686-4.927z"/></g><g><path fill="#fff" d="M112.118 35.678c0 1.442-.5 2.614-1.505 3.52-1.104.99-2.641 1.484-4.616 1.484-1.824 0-3.286-.352-4.393-1.056l.63-2.263a7.443 7.443 0 0 0 3.924 1.082c1.023 0 1.819-.232 2.39-.693.57-.46.854-1.08.854-1.851 0-.688-.234-1.267-.704-1.737-.468-.47-1.248-.907-2.339-1.31-2.967-1.107-4.45-2.729-4.45-4.86 0-1.394.52-2.536 1.56-3.425 1.038-.89 2.42-1.334 4.15-1.334 1.542 0 2.823.268 3.846.804l-.679 2.214c-.955-.52-2.035-.78-3.243-.78-.956 0-1.702.236-2.237.705-.452.419-.678.93-.678 1.534 0 .67.258 1.224.778 1.66.452.402 1.273.838 2.465 1.307 1.458.588 2.53 1.274 3.218 2.061.687.784 1.03 1.766 1.03 2.938z"/></g><g><path fill="#fff" d="M121.095 30.248h-2.993v5.933c0 1.51.528 2.263 1.585 2.263.485 0 .887-.042 1.206-.126l.075 2.062c-.535.2-1.24.3-2.112.3-1.072 0-1.91-.327-2.515-.98-.602-.655-.905-1.753-.905-3.295v-6.16h-1.783v-2.037h1.783V25.97l2.666-.805v3.043h2.993v2.04z"/></g><g><path fill="#fff" d="M131.029 37.232c-.588.99-1.401 1.487-2.438 1.487-1.058 0-1.878-.486-2.465-1.462-.488-.805-.729-1.771-.729-2.898 0-1.162.24-2.144.729-2.951.569-.974 1.398-1.462 2.49-1.462 1.054 0 1.867.486 2.437 1.462.487.806.728 1.773.728 2.9 0 1.125-.252 2.102-.752 2.924zm3.57-3.012c0-1.828-.52-3.319-1.562-4.474-1.089-1.19-2.532-1.785-4.325-1.785-1.86 0-3.34.603-4.437 1.81-1.099 1.206-1.646 2.758-1.646 4.651 0 1.81.532 3.311 1.596 4.5 1.065 1.19 2.493 1.785 4.286 1.785 1.86 0 3.353-.619 4.477-1.86 1.073-1.207 1.61-2.749 1.61-4.627z"/></g><g><path fill="#fff" d="M143.424 30.598a4.714 4.714 0 0 0-.856-.075c-.955 0-1.694.36-2.214 1.082-.452.637-.678 1.442-.678 2.414v6.412h-2.714l.025-8.372c0-1.409-.034-2.691-.102-3.848h2.365l.1 2.339h.075c.286-.804.738-1.451 1.357-1.936.605-.437 1.259-.655 1.963-.655.25 0 .477.018.679.05v2.589z"/></g><g><path fill="#fff" d="M152.977 33.037h-5.655c.083-.82.351-1.525.803-2.112.552-.738 1.274-1.106 2.162-1.106.971 0 1.693.377 2.163 1.132.368.587.545 1.282.527 2.087zm1.512-3.14c-.905-1.307-2.239-1.96-4-1.96-1.793 0-3.218.653-4.273 1.96-1.007 1.223-1.51 2.758-1.51 4.6 0 1.878.541 3.374 1.621 4.488 1.083 1.115 2.57 1.672 4.465 1.672 1.575 0 2.94-.25 4.097-.755l-.425-1.885c-.99.386-2.09.579-3.296.579-1.09 0-1.978-.286-2.664-.855-.757-.637-1.15-1.56-1.182-2.767h8.145c.068-.335.1-.745.1-1.232 0-1.524-.36-2.808-1.078-3.846z"/></g></g><g><g><g><path fill="#fff" d="M55.3 9.572c.29-.173.616-.318.983-.438.365-.12.796-.18 1.291-.18.798 0 1.428.19 1.889.569.46.378.691.889.691 1.532 0 .51-.154.938-.462 1.285a2.238 2.238 0 0 1-1.18.691v.037c.263.042.512.113.747.217.235.103.442.24.617.413a1.873 1.873 0 0 1 .574 1.373c0 .461-.092.848-.278 1.162a2.331 2.331 0 0 1-.729.766c-.299.198-.635.34-1.006.426-.37.085-.74.13-1.111.13-.396 0-.787-.042-1.175-.124a3.647 3.647 0 0 1-1.074-.407l.333-1.026c.214.107.49.21.828.31.338.1.679.148 1.025.148.568 0 1.008-.128 1.316-.382.308-.256.463-.598.463-1.026 0-.289-.062-.524-.186-.71a1.356 1.356 0 0 0-.482-.44 2.107 2.107 0 0 0-.661-.221 4.367 4.367 0 0 0-.722-.063h-.557V12.6h.557c.254 0 .491-.031.71-.099.218-.065.408-.158.568-.277.16-.12.287-.263.377-.427.09-.164.135-.35.135-.557 0-.37-.132-.66-.396-.87-.263-.21-.617-.317-1.062-.317-.304 0-.61.05-.914.148-.305.1-.577.206-.817.321z"/></g><g><path fill="#fff" d="M65.726 15.354c0 .173-.036.335-.11.488-.075.153-.17.283-.29.39a1.337 1.337 0 0 1-.902.346.931.931 0 0 1-.652-.234c-.172-.157-.257-.391-.257-.705 0-.428.182-.737.546-.927.364-.19.92-.284 1.665-.284zm.184 2.064h1.2c-.057-.337-.087-.815-.087-1.432v-2.211c0-1.656-.785-2.483-2.356-2.483-.821 0-1.507.173-2.059.518l.271.876c.451-.295.973-.444 1.566-.444.83 0 1.245.394 1.245 1.185v.111c-1.12 0-1.984.187-2.594.562-.61.374-.914.937-.914 1.686 0 .254.044.49.135.704.091.215.217.4.383.557.164.156.358.28.58.37.223.09.47.136.742.136.766 0 1.35-.276 1.753-.827h.037l.098.691z"/></g><g><path fill="#fff" d="M73.46 11.414v1.099h-2.496v4.904H69.63v-6.003z"/></g><g><path fill="#fff" d="M79.736 14.391c0 .642-.143 1.157-.423 1.54s-.671.574-1.174.574a1.42 1.42 0 0 1-.586-.117 1.338 1.338 0 0 1-.457-.327 1.493 1.493 0 0 1-.296-.494 1.743 1.743 0 0 1-.106-.618v-1c0-.224.042-.434.125-.631a1.61 1.61 0 0 1 .327-.507c.135-.14.293-.252.475-.334.183-.081.369-.123.557-.123.24 0 .456.05.65.154.193.103.359.243.494.42s.238.391.308.642c.07.25.106.525.106.821zm1.357-.05a3.85 3.85 0 0 0-.191-1.242 2.983 2.983 0 0 0-.525-.964 2.4 2.4 0 0 0-.784-.624 2.2 2.2 0 0 0-.982-.222c-.907 0-1.582.36-2.026 1.075h-.026l-.075-.951h-1.173a49.222 49.222 0 0 1 .049 1.977v6.474h1.334V16.7h.026c.346.568.914.852 1.705.852a2.46 2.46 0 0 0 1.081-.235 2.48 2.48 0 0 0 .84-.655c.235-.279.417-.616.55-1.012.13-.395.197-.832.197-1.31z"/></g><g><path fill="#fff" d="M88.26 11.414l-1.52 4.163c-.362.988-.715 1.797-1.056 2.427-.343.63-.669 1.09-.982 1.378-.46.411-.951.664-1.47.753l-.322-1.123c.345-.09.675-.268.989-.531a2.95 2.95 0 0 0 .754-.989c.066-.13.098-.221.098-.271 0-.05-.026-.144-.074-.284l-2.175-5.522h1.47l1.136 3.348c.059.157.116.334.174.531.058.198.12.417.186.655h.025c.04-.133.087-.298.135-.5.05-.202.116-.435.197-.699l1.014-3.335h1.421z"/></g><g><path fill="#fff" d="M90.57 13.909h.617c.452 0 .803-.082 1.05-.247.245-.166.37-.367.37-.607a.687.687 0 0 0-.316-.592c-.209-.148-.5-.223-.871-.223-.24 0-.48.04-.72.118a3.795 3.795 0 0 0-.675.29l-.345-.864a3.693 3.693 0 0 1 1.033-.388c.341-.07.684-.106 1.03-.106.274 0 .548.027.823.08.274.054.52.144.734.272.214.127.39.294.524.5.137.207.204.461.204.767 0 .19-.037.357-.112.5a1.295 1.295 0 0 1-.295.382c-.123.111-.262.203-.413.272a2.22 2.22 0 0 1-.462.155v.037c.196.026.388.075.574.149.185.074.35.17.5.29.147.12.267.264.358.432.09.17.134.36.134.574 0 .354-.084.651-.258.89-.172.239-.394.427-.663.567-.266.14-.561.241-.882.303a5.016 5.016 0 0 1-2.037-.024 3.45 3.45 0 0 1-.978-.364l.348-.877c.214.115.457.212.734.29.276.078.557.117.845.117.452 0 .801-.088 1.044-.265.241-.177.363-.397.363-.66a.749.749 0 0 0-.122-.439.905.905 0 0 0-.345-.29 1.693 1.693 0 0 0-.52-.154 4.386 4.386 0 0 0-.641-.044h-.63z"/></g><g><path fill="#fff" d="M97.697 11.414v2.124c0 .487-.008.923-.025 1.31a89.74 89.74 0 0 1-.063 1.222l.026.024c.156-.313.31-.619.462-.92.154-.301.308-.608.465-.921l1.482-2.842h1.728v6.004h-1.26V15.29c0-.444.012-.888.031-1.333.02-.446.042-.894.068-1.347h-.063c-.138.37-.278.691-.42.964a36.98 36.98 0 0 0-.418.84c-.256.494-.509.988-.761 1.483-.251.494-.517 1-.796 1.519h-1.728v-6.002z"/></g><g><path fill="#fff" d="M108.815 11.414v1.099h-1.828v4.904h-1.311v-4.904h-1.816v-1.1z"/></g><g><path fill="#fff" d="M111.57 13.786c.041-.462.198-.84.47-1.137.27-.297.598-.444.986-.444.428 0 .755.147.982.439.227.292.339.672.339 1.142zm4.05.346c0-.428-.057-.818-.174-1.167a2.576 2.576 0 0 0-.5-.902 2.177 2.177 0 0 0-.789-.58 2.547 2.547 0 0 0-1.033-.204c-.428 0-.819.083-1.169.247a2.689 2.689 0 0 0-.895.68 3.148 3.148 0 0 0-.574 1.019 3.93 3.93 0 0 0-.202 1.278c0 .461.068.877.202 1.247a2.7 2.7 0 0 0 .587.951c.256.264.569.468.94.612.37.144.79.216 1.258.216.775 0 1.445-.123 2.014-.37l-.208-.927a4.48 4.48 0 0 1-1.619.284c-.56 0-1.011-.156-1.352-.464-.342-.308-.52-.748-.538-1.316h4.003c.016-.081.029-.174.037-.277.007-.103.012-.213.012-.327z"/></g><g><path fill="#fff" d="M122.28 16.515v-1.791h.704c.52 0 .93.065 1.236.196.303.131.458.368.458.712 0 .196-.05.354-.144.472a.956.956 0 0 1-.376.283c-.157.07-.331.117-.52.141a5 5 0 0 1-.946.024c-.11-.008-.248-.02-.412-.036zm0-4.197c.182-.017.323-.03.425-.037a4.39 4.39 0 0 1 .365-.013c.486 0 .84.064 1.068.191.229.128.34.328.34.599 0 .149-.039.274-.116.377a.824.824 0 0 1-.329.247c-.14.061-.302.107-.488.135-.184.03-.38.043-.587.043h-.678zm-1.284 5.1c.214.016.477.032.796.049.316.018.64.025.97.025.296 0 .632-.018 1.005-.05a4.173 4.173 0 0 0 1.07-.235c.338-.124.621-.31.853-.557.228-.247.345-.58.345-1 0-.42-.136-.75-.407-.989-.272-.24-.627-.396-1.063-.47l-.012-.037c.158-.031.307-.084.45-.154a1.47 1.47 0 0 0 .384-.265 1.167 1.167 0 0 0 .365-.865c0-.353-.096-.632-.286-.839a1.76 1.76 0 0 0-.704-.463 3.423 3.423 0 0 0-.883-.197 9.345 9.345 0 0 0-.833-.044c-.388 0-.766.012-1.137.037-.37.026-.674.059-.913.1z"/></g></g></g></g></g></svg>