<svg xmlns="http://www.w3.org/2000/svg" width="172" height="52" viewBox="0 0 172 52"><defs><linearGradient id="7d6oa" x1="28.15" x2="6.92" y1="220.06" y2="198.83" gradientUnits="userSpaceOnUse"><stop offset="0" stop-color="#00a0ff"/><stop offset=".01" stop-color="#00a1ff"/><stop offset=".26" stop-color="#00beff"/><stop offset=".51" stop-color="#00d2ff"/><stop offset=".76" stop-color="#00dfff"/><stop offset="1" stop-color="#00e3ff"/></linearGradient><linearGradient id="7d6ob" x1="43.37" x2="12.77" y1="205.75" y2="205.75" gradientUnits="userSpaceOnUse"><stop offset="0" stop-color="#ffe000"/><stop offset=".41" stop-color="#ffbd00"/><stop offset=".78" stop-color="orange"/><stop offset="1" stop-color="#ff9c00"/></linearGradient><linearGradient id="7d6oc" x1="31.98" x2="3.19" y1="202.76" y2="173.99" gradientUnits="userSpaceOnUse"><stop offset="0" stop-color="#ff3a44"/><stop offset="1" stop-color="#c31162"/></linearGradient><linearGradient id="7d6od" x1="9.81" x2="22.66" y1="230.86" y2="218.01" gradientUnits="userSpaceOnUse"><stop offset="0" stop-color="#32a071"/><stop offset=".07" stop-color="#2da771"/><stop offset=".48" stop-color="#15cf74"/><stop offset=".8" stop-color="#06e775"/><stop offset="1" stop-color="#00f076"/></linearGradient></defs><g><g><path d="M10.7 51.396c-5.522 0-10-4.477-10-10V10.938c0-5.523 4.478-10 10-10h150.652c5.523 0 10 4.477 10 10v30.458c0 5.523-4.477 10-10 10z"/></g><g><path fill="#fff" d="M135.841 22.933h2.366v15.812h-2.366zm23.897 5.692L153.26 43.54h-2.467l2.403-5.326-4.212-9.589h2.53l2.808 6.857h.076l2.707-6.857zm-16.016 8.324a2.859 2.859 0 0 0 2.77-2.53 4.2 4.2 0 0 0-2.15-.531c-1.189 0-2.53.417-2.53 1.682 0 .949 1.076 1.341 1.847 1.341zm.291-8.665c2.695 0 4.795 1.606 4.795 4.377v6.084h-2.277V37.48h-.076a3.327 3.327 0 0 1-3.036 1.518 3.656 3.656 0 0 1-3.922-3.478c0-2.29 2.29-3.555 4.554-3.555a5.224 5.224 0 0 1 2.467.607v-.164a2.277 2.277 0 0 0-2.53-2.037 2.24 2.24 0 0 0-2.15 1.164l-2.1-.873a4.428 4.428 0 0 1 4.212-2.416zm-14.598 2.277a2.713 2.713 0 1 0 0-5.427h-3.352v5.389h3.302zm-.038-7.628a4.92 4.92 0 1 1 0 9.816h-3.301v5.996h-2.366V22.933h5.655zM98.524 36.949h-.013zm-.004 0a3.01 3.01 0 0 0 2.875-3.264 3.036 3.036 0 0 0-2.871-3.263 3.276 3.276 0 0 0-.004 6.527zm2.71-8.324h2.177v9.576c0 3.973-2.29 5.604-5.06 5.604a5.123 5.123 0 0 1-4.77-3.175l2.062-.86a2.973 2.973 0 0 0 2.708 1.91c1.77 0 2.871-1.1 2.871-3.162v-.772h-.076a3.669 3.669 0 0 1-2.833 1.265 5.389 5.389 0 0 1 0-10.765 3.795 3.795 0 0 1 2.833 1.265h.089zm3.872-5.692h2.365v15.812h-2.365zm10.651 8.602a2.087 2.087 0 0 0-1.999-1.139 2.947 2.947 0 0 0-2.808 3.138zm2.796.771l-7.198 2.973a2.732 2.732 0 0 0 2.606 1.632 3.074 3.074 0 0 0 2.644-1.493l1.834 1.265a5.351 5.351 0 0 1-4.478 2.379 5.262 5.262 0 0 1-5.339-5.377 5.06 5.06 0 0 1 5.06-5.376 5.06 5.06 0 0 1 4.605 3.428zm-49.905-2.403c.088.471.13.95.127 1.43a7.59 7.59 0 0 1-1.974 5.338 7.59 7.59 0 0 1-5.831 2.34 8.362 8.362 0 1 1 0-16.71 7.957 7.957 0 0 1 5.73 2.365l-1.607 1.606a5.82 5.82 0 0 0-4.136-1.631 6.072 6.072 0 1 0 0 12.144 5.591 5.591 0 0 0 4.212-1.67 4.77 4.77 0 0 0 1.265-2.872h-5.464v-2.277zm6.338 7.046a3.112 3.112 0 0 0 3.036-3.264 3.264 3.264 0 1 0-3.024 3.264zm0-8.64a5.3 5.3 0 0 1 5.401 5.376 5.376 5.376 0 1 1-5.389-5.376zm11.79 8.64a3.112 3.112 0 0 0 3.036-3.264 3.264 3.264 0 1 0-3.036 3.264zm0-8.64a5.3 5.3 0 0 1 5.401 5.376 5.376 5.376 0 1 1-5.401-5.376z"/></g><g><path fill="url(#7d6oa)" d="M13.78 10.333a2.53 2.53 0 0 0-.581 1.771v27.982a2.53 2.53 0 0 0 .582 1.771l.088.089 15.674-15.661v-.367L13.869 10.245z"/></g><g><path fill="url(#7d6ob)" d="M34.73 31.51l-5.187-5.225v-.367l5.186-5.237.114.063 6.211 3.53c1.771.999 1.771 2.644 0 3.656l-6.186 3.516z"/></g><g><path fill="url(#7d6oc)" d="M34.881 31.434l-5.338-5.339L13.78 41.857c.744.655 1.85.687 2.63.076l18.483-10.5"/></g><g><path fill="url(#7d6od)" d="M34.881 20.757l-18.482-10.5a2.062 2.062 0 0 0-2.631.076l15.775 15.762z"/></g><g><path fill="#fff" d="M118.043 16.304h1.96c.347.012.681-.132.911-.392.223-.231.35-.539.355-.86 0-.699-.567-1.265-1.265-1.265h-1.923zm0-3.403h1.77c.336.014.66-.12.886-.367a1.126 1.126 0 0 0 .05-1.619 1.088 1.088 0 0 0-.847-.367h-1.809zm-.974 4.34V9.65h2.745c.57-.012 1.122.197 1.543.581.428.371.669.914.658 1.48.006.337-.091.668-.278.949a1.758 1.758 0 0 1-.747.62c.367.121.689.35.924.658.243.31.372.693.367 1.087a1.986 1.986 0 0 1-.684 1.544 2.34 2.34 0 0 1-1.619.62zm-9.943-1.62a2.922 2.922 0 0 0 4.124 0 3.238 3.238 0 0 0 0-4.352 2.922 2.922 0 0 0-4.124 0 3.238 3.238 0 0 0 0 4.352zm4.845.632a3.947 3.947 0 0 1-5.566 0 4.099 4.099 0 0 1 0-5.629 3.922 3.922 0 0 1 5.566 0 4.086 4.086 0 0 1 0 5.63zm-13.7.987V9.65h.974v3.251h3.795v-3.25h.974v7.59h-.974v-3.429h-3.795v3.428zm-7.224 0V9.65h5.49v7.59h-.973v-6.654h-3.542v6.654zm-1.1-7.59l-2.872 6.401a1.91 1.91 0 0 1-1.745 1.354 1.948 1.948 0 0 1-.76-.165l.254-.898c.153.09.328.138.506.14a.898.898 0 0 0 .53-.127 1.19 1.19 0 0 0 .342-.481l.279-.607-2.53-5.604h1.15l1.873 4.351 1.822-4.364zm-8.817 7.59h-.974v-6.654H78.03V9.65h5.211v.936H81.13zm-6.958.165a3.871 3.871 0 0 1-3.947-3.96 3.871 3.871 0 0 1 3.947-3.96 3.504 3.504 0 0 1 2.783 1.266l-.683.657a2.53 2.53 0 0 0-2.112-.96 2.872 2.872 0 0 0-2.1.834 3.251 3.251 0 0 0 0 4.39 2.872 2.872 0 0 0 2.1.834 2.998 2.998 0 0 0 2.315-1.125l.683.683a3.694 3.694 0 0 1-1.265.986 3.985 3.985 0 0 1-1.72.355zM63.293 15.62a2.922 2.922 0 0 0 4.124 0 3.238 3.238 0 0 0 0-4.352 2.922 2.922 0 0 0-4.124 0 3.238 3.238 0 0 0 0 4.352zm4.845.632a3.947 3.947 0 0 1-5.566 0 4.099 4.099 0 0 1 0-5.629 3.922 3.922 0 0 1 5.566 0 4.086 4.086 0 0 1 0 5.63zm-12.536-2.808a5.06 5.06 0 0 1-.721 2.91h3.795v-5.769h-3.074zm-1.758 5.402h-.937v-2.53h.797a3.618 3.618 0 0 0 .962-2.91V9.65h5.06v6.654h.847v2.53h-.936V17.24h-5.793z"/><path fill="none" stroke="#fff" stroke-miterlimit="20" stroke-width=".2" d="M118.043 16.304h1.96c.347.012.681-.132.911-.392.223-.231.35-.539.355-.86 0-.699-.567-1.265-1.265-1.265h-1.923zm0-3.403h1.77c.336.014.66-.12.886-.367a1.126 1.126 0 0 0 .05-1.619 1.088 1.088 0 0 0-.847-.367h-1.809zm-.974 4.34V9.65h2.745c.57-.012 1.122.197 1.543.581.428.371.669.914.658 1.48.006.337-.091.668-.278.949a1.758 1.758 0 0 1-.747.62c.367.121.689.35.924.658.243.31.372.693.367 1.087a1.986 1.986 0 0 1-.684 1.544 2.34 2.34 0 0 1-1.619.62zm-9.943-1.62a2.922 2.922 0 0 0 4.124 0 3.238 3.238 0 0 0 0-4.352 2.922 2.922 0 0 0-4.124 0 3.238 3.238 0 0 0 0 4.352zm4.845.632a3.947 3.947 0 0 1-5.566 0 4.099 4.099 0 0 1 0-5.629 3.922 3.922 0 0 1 5.566 0 4.086 4.086 0 0 1 0 5.63zm-13.7.987V9.65h.974v3.251h3.795v-3.25h.974v7.59h-.974v-3.429h-3.795v3.428zm-7.224 0V9.65h5.49v7.59h-.973v-6.654h-3.542v6.654zm-1.1-7.59l-2.872 6.401a1.91 1.91 0 0 1-1.745 1.354 1.948 1.948 0 0 1-.76-.165l.254-.898c.153.09.328.138.506.14a.898.898 0 0 0 .53-.127 1.19 1.19 0 0 0 .342-.481l.279-.607-2.53-5.604h1.15l1.873 4.351 1.822-4.364zm-8.817 7.59h-.974v-6.654H78.03V9.65h5.211v.936H81.13zm-6.958.165a3.871 3.871 0 0 1-3.947-3.96 3.871 3.871 0 0 1 3.947-3.96 3.504 3.504 0 0 1 2.783 1.266l-.683.657a2.53 2.53 0 0 0-2.112-.96 2.872 2.872 0 0 0-2.1.834 3.251 3.251 0 0 0 0 4.39 2.872 2.872 0 0 0 2.1.834 2.998 2.998 0 0 0 2.315-1.125l.683.683a3.694 3.694 0 0 1-1.265.986 3.985 3.985 0 0 1-1.72.355zM63.293 15.62a2.922 2.922 0 0 0 4.124 0 3.238 3.238 0 0 0 0-4.352 2.922 2.922 0 0 0-4.124 0 3.238 3.238 0 0 0 0 4.352zm4.845.632a3.947 3.947 0 0 1-5.566 0 4.099 4.099 0 0 1 0-5.629 3.922 3.922 0 0 1 5.566 0 4.086 4.086 0 0 1 0 5.63zm-12.536-2.808a5.06 5.06 0 0 1-.721 2.91h3.795v-5.769h-3.074zm-1.758 5.402h-.937v-2.53h.797a3.618 3.618 0 0 0 .962-2.91V9.65h5.06v6.654h.847v2.53h-.936V17.24h-5.793z"/></g></g></svg>